# xmcd
#
# Track frame offsets:
#	150
#	18011
#	36619
#	54128
#	70534
#	86364
#	101059
#	118535
#	136466
#	154109
#	169203
#	183460
#	200439
#	216675
#	235831
#	250414
#	265029
#	282506
#	299906
#	316123
#
# Disc length: 4455 seconds
#
# Revision: 2
# Processed by: cddbd v1.5.2PL0 Copyright (c) Steve Scherf et al.
# Submitted via: EasyCDDAExtractor 11.5.0.1
#
DISCID=2b116514
DTITLE=Various Artist - NCT 096
DYEAR=2007
DGENRE=Country
TTITLE0=Brad Paisley - Ticks
TTITLE1=George Strait - Wrapped
TTITLE2=The Wreckers - Tennessee
TTITLE3=Trent Tomlinson - Just Might Have Her Radio On
TTITLE4=Rodney Atkins - These Are My People
TTITLE5=Craig Morgan - Tough
TTITLE6=Rodney Carrington - Show Them To Me
TTITLE7=Vince Gill ft. Sheryl Crow - What You Give Away
TTITLE8=Carolyn Dawn Johnson - Got A Good Day
TTITLE9=Ronnie Milsap with Jypsi - You Don't Know My Love
TTITLE10=Lee Brice - She Ain't Right
TTITLE11=Lance Miller - She Really Loves Me
TTITLE12=Bomshell - Bomshell Stomp
TTITLE13=Darryl Worley - Living In The Here And Now
TTITLE14=Amy Dalley - Good Kind Of Crazy
TTITLE15=No Justice - Never Come Back
TTITLE16=Halfway To Hazard - Daisy
TTITLE17=John Mellencamp - The Americans
TTITLE18=Shawn King ft. Willie Nelson - I Give
TTITLE19=Jamie O'Neal - God Don't Make Mistakes
EXTD=
EXTT0=
EXTT1=
EXTT2=
EXTT3=
EXTT4=
EXTT5=
EXTT6=
EXTT7=
EXTT8=
EXTT9=
EXTT10=
EXTT11=
EXTT12=
EXTT13=
EXTT14=
EXTT15=
EXTT16=
EXTT17=
EXTT18=
EXTT19=
PLAYORDER=
